<svg width="117" height="35" viewBox="0 0 117 35" fill="none" xmlns="http://www.w3.org/2000/svg">
<g clip-path="url(#clip0_2_554)">
<path d="M44.146 14.432C44.146 10.87 43.1254 9.04137 41.0842 8.94124C40.272 8.90309 39.479 9.03184 38.7075 9.32986C38.0918 9.54921 37.6773 9.76617 37.4593 9.98551V18.4875C38.765 19.3029 39.9246 19.682 40.9356 19.6224C43.0751 19.4817 44.146 17.7532 44.146 14.432ZM46.664 14.5798C46.664 16.3894 46.2376 17.8915 45.3799 19.0859C44.424 20.4378 43.0991 21.1339 41.4052 21.1721C40.1282 21.2126 38.8129 20.8145 37.4593 19.98V27.7071L35.2695 26.9299V9.77809C35.6289 9.3394 36.0913 8.9627 36.6519 8.64322C37.9552 7.88743 39.5389 7.49881 41.4028 7.47974L41.434 7.51073C43.1374 7.48927 44.4503 8.18545 45.3727 9.59689C46.2328 10.8915 46.664 12.5509 46.664 14.5798Z" fill="#808080"/>
<path d="M60.0494 19.651C60.0494 22.0781 59.805 23.7589 59.3162 24.6935C58.8251 25.6281 57.8907 26.3744 56.5107 26.9299C55.3919 27.3686 54.182 27.607 52.8835 27.6475L52.5217 26.2742C53.8418 26.0954 54.7714 25.9166 55.3104 25.7378C56.3718 25.3802 57.1001 24.8318 57.5002 24.0975C57.8213 23.4991 57.9794 22.357 57.9794 20.6666V20.0992C56.482 20.7763 54.9127 21.1125 53.2716 21.1125C52.1935 21.1125 51.2423 20.7763 50.423 20.0992C49.503 19.3625 49.043 18.4279 49.043 17.2954V8.22599L51.2327 7.47974V16.6088C51.2327 17.5839 51.549 18.3349 52.1815 18.8618C52.814 19.3887 53.6334 19.6414 54.6372 19.6224C55.6411 19.6009 56.7168 19.2147 57.8596 18.4589V7.80875H60.0494V19.651Z" fill="#808080"/>
<path d="M68.5969 21.0528C68.3357 21.0743 68.0961 21.0838 67.8757 21.0838C66.6371 21.0838 65.6716 20.7906 64.9816 20.2017C64.294 19.6128 63.949 18.7998 63.949 17.7626V9.1796H62.4492V7.80869H63.949V4.16805L66.1364 3.39319V7.80869H68.5969V9.1796H66.1364V17.703C66.1364 18.5208 66.3568 19.1002 66.7976 19.4387C67.1762 19.7177 67.7775 19.8774 68.5969 19.9179V21.0528Z" fill="#808080"/>
<path d="M81.8554 20.874H79.6657V12.4626C79.6657 11.6067 79.4644 10.87 79.0643 10.2548C78.6019 9.55866 77.9598 9.21057 77.1357 9.21057C76.1318 9.21057 74.8764 9.73747 73.3695 10.7913V20.874H71.1797V0.768186L73.3695 0.081543V9.23918C74.7686 8.2259 76.2972 7.71807 77.9575 7.71807C79.117 7.71807 80.0562 8.10669 80.7749 8.88155C81.4961 9.65641 81.8554 10.622 81.8554 11.7759V20.874Z" fill="#808080"/>
<path d="M93.4936 14.0887C93.4936 12.7202 93.2324 11.5901 92.7125 10.696C92.0944 9.60643 91.1337 9.03184 89.8352 8.97223C87.4346 9.11052 86.2366 10.8224 86.2366 14.103C86.2366 15.6074 86.4858 16.8639 86.9889 17.8724C87.631 19.1575 88.5941 19.7916 89.8783 19.7702C92.2885 19.7511 93.4936 17.8581 93.4936 14.0887ZM95.8918 14.103C95.8918 16.0509 95.3911 17.6721 94.392 18.9667C93.2923 20.4163 91.7734 21.1435 89.8352 21.1435C87.9137 21.1435 86.4163 20.4163 85.3358 18.9667C84.3559 17.6721 83.8672 16.0509 83.8672 14.103C83.8672 12.2719 84.3967 10.7318 85.4556 9.47768C86.5745 8.14731 88.0455 7.47974 89.8639 7.47974C91.6823 7.47974 93.1629 8.14731 94.3034 9.47768C95.3623 10.7318 95.8918 12.2719 95.8918 14.103Z" fill="#808080"/>
<path d="M108.447 20.8741H106.257V11.9858C106.257 11.0107 105.962 10.2502 105.373 9.70179C104.783 9.15581 103.997 8.89117 103.018 8.91263C101.978 8.9317 100.988 9.27025 100.049 9.9259V20.8741H97.8594V9.65649C99.1196 8.74335 100.279 8.14731 101.338 7.86836C102.337 7.60848 103.219 7.47974 103.978 7.47974C104.498 7.47974 104.987 7.52981 105.447 7.62994C106.307 7.82783 107.007 8.19499 107.546 8.73382C108.147 9.32986 108.447 10.0451 108.447 10.882V20.8741Z" fill="#808080"/>
<path d="M13.6435 0.848736C12.5168 0.853945 11.4409 0.949566 10.4942 1.11627C7.7053 1.60658 7.19895 2.63284 7.19895 4.52544V7.02499H13.7894V7.85818H7.19895H4.72561C2.81023 7.85818 1.13308 9.00384 0.608484 11.1833C0.00337307 13.6814 -0.0234669 15.2403 0.608484 17.8487C1.07696 19.7904 2.19574 21.1738 4.11111 21.1738H6.37706V18.1774C6.37706 16.0127 8.25918 14.1032 10.4942 14.1032H17.077C18.9094 14.1032 20.3722 12.6018 20.3722 10.7705V4.52544C20.3722 2.74807 18.8655 1.41291 17.077 1.11627C15.9448 0.928727 14.7701 0.843526 13.6435 0.848736ZM10.0794 2.85908C10.7601 2.85908 11.3161 3.42134 11.3161 4.11267C11.3161 4.80156 10.7601 5.35863 10.0794 5.35863C9.39621 5.35863 8.84273 4.80156 8.84273 4.11267C8.84273 3.42134 9.39621 2.85908 10.0794 2.85908Z" fill="#366B98"/>
<path d="M21.1944 7.85815V10.7705C21.1944 13.0284 19.2708 14.9287 17.0772 14.9287H10.4945C8.69132 14.9287 7.19922 16.4645 7.19922 18.2615V24.5065C7.19922 26.2839 8.75232 27.3293 10.4945 27.8393C12.5806 28.4497 14.5812 28.56 17.0772 27.8393C18.7364 27.3612 20.3725 26.3991 20.3725 24.5065V22.007H13.7897V21.1738H20.3725H23.6677C25.5831 21.1738 26.2968 19.8443 26.9629 17.8487C27.651 15.7943 27.6217 13.8187 26.9629 11.1832C26.4896 9.28574 25.5855 7.85815 23.6677 7.85815H21.1944ZM17.492 23.6734C18.1752 23.6734 18.7287 24.2304 18.7287 24.9193C18.7287 25.6106 18.1752 26.1729 17.492 26.1729C16.8113 26.1729 16.2554 25.6106 16.2554 24.9193C16.2554 24.2304 16.8113 23.6734 17.492 23.6734Z" fill="#FFCC3B"/>
<path d="M112.71 5.8659H113.094V3.4697H114.004V3.18408H111.801V3.4697H112.71V5.8659ZM114.344 5.8659H114.672V3.67742L115.384 5.86563H115.749L116.491 3.68484V5.8659H116.849V3.18408H116.376L115.565 5.48162L114.873 3.18408H114.344V5.8659Z" fill="#808080"/>
</g>
<defs>
<clipPath id="clip0_2_554">
<rect width="117" height="34" fill="white" transform="translate(0 0.0175781)"/>
</clipPath>
</defs>
</svg>
